<?xml version="1.0" standalone="no"?>
<!DOCTYPE svg PUBLIC "-//W3C//DTD SVG 20010904//EN"
 "http://www.w3.org/TR/2001/REC-SVG-20010904/DTD/svg10.dtd">
<svg version="1.0" xmlns="http://www.w3.org/2000/svg"
 width="150.000000pt" height="145.000000pt" viewBox="0 0 150.000000 145.000000"
 preserveAspectRatio="xMidYMid meet">
<metadata>
Created by potrace 1.10, written by Peter Selinger 2001-2011
</metadata>
<g transform="translate(0.000000,145.000000) scale(0.100000,-0.100000)"
fill="#000000" stroke="none">
<path d="M535 1225 c-109 -29 -260 -116 -351 -201 -37 -34 -44 -49 -59 -118
-24 -106 -16 -191 31 -336 86 -270 180 -385 370 -450 155 -54 334 6 498 166
57 54 82 88 110 148 l38 79 -12 86 c-10 76 -24 150 -61 309 -5 24 -17 54 -25
67 -36 55 -142 60 -196 9 -29 -28 -30 -30 -24 -102 4 -40 19 -107 35 -150 32
-91 42 -95 132 -61 33 12 62 19 66 16 12 -12 -58 -136 -102 -182 -92 -94 -266
-149 -395 -126 -79 15 -187 70 -244 125 -186 182 -101 549 158 676 48 24 72
31 92 26 22 -6 25 -4 20 9 -3 9 -6 19 -6 21 0 7 -22 4 -75 -11z m-145 -95
c-44 -38 -77 -57 -86 -47 -4 4 116 87 126 87 3 -1 -15 -18 -40 -40z m-90 -107
c-54 -85 -72 -148 -74 -256 -2 -96 -2 -98 -31 -117 -36 -24 -39 -20 -56 82
-11 68 -11 85 6 160 16 70 24 88 54 115 28 27 92 59 123 62 4 1 -6 -20 -22
-46z m728 -39 c33 -23 51 -64 59 -140 11 -96 6 -134 -16 -134 -15 0 -20 13
-29 81 -5 45 -16 86 -22 93 -12 11 -9 -49 6 -141 5 -25 1 -34 -18 -46 -12 -9
-34 -17 -48 -19 -22 -3 -27 4 -52 67 -38 97 -37 105 11 105 31 0 44 6 61 27
36 47 11 93 -43 79 -20 -5 -27 -13 -27 -32 0 -28 25 -43 43 -25 8 8 7 11 -6
11 -9 0 -17 7 -17 16 0 18 41 16 47 -3 6 -18 -34 -53 -61 -53 -57 0 -62 70 -7
107 39 27 87 30 119 7z m106 -357 c20 -136 10 -167 -20 -68 -16 54 -20 80 -13
98 5 13 9 38 9 55 0 56 9 24 24 -85z m-846 -90 c13 -20 39 -50 59 -66 l35 -29
-38 -71 c-22 -39 -42 -71 -45 -71 -10 0 -85 162 -109 234 -19 57 -20 70 -9 77
8 4 23 14 34 23 19 13 21 12 35 -23 8 -20 25 -53 38 -74z m813 -16 l22 -69
-26 -43 c-35 -60 -125 -147 -131 -128 -3 8 -12 43 -20 79 l-15 65 44 37 c24
21 56 58 72 83 15 25 29 45 30 45 1 0 12 -31 24 -69z m-634 -125 c55 -28 121
-45 172 -46 l34 0 -7 -61 c-3 -34 -6 -86 -6 -115 0 -53 -1 -54 -28 -54 -75 0
-225 67 -282 125 l-32 33 37 48 c21 27 41 59 46 71 5 13 10 23 13 23 2 0 26
-11 53 -24z m464 -66 l19 -82 -22 -18 c-51 -43 -231 -121 -245 -107 -1 2 0 53
4 115 l6 111 71 16 c39 9 87 24 106 35 19 10 36 17 38 15 2 -1 12 -39 23 -85z"/>
<path d="M1379 1009 c-6 -12 -8 -34 -5 -50 4 -23 2 -28 -16 -31 -12 -2 -23 -9
-26 -17 -3 -10 2 -12 20 -8 22 6 26 2 34 -24 5 -17 14 -30 19 -29 6 1 9 5 8 9
-15 60 -15 60 11 67 14 3 26 12 26 20 0 17 -12 18 -28 2 -18 -18 -36 5 -28 37
5 21 10 24 21 15 10 -8 15 -8 20 1 8 12 -11 29 -32 29 -7 0 -17 -10 -24 -21z"/>
<path d="M569 934 c-10 -13 -10 -17 0 -24 11 -6 6 -17 -19 -49 -18 -22 -41
-43 -50 -46 -19 -6 -36 -67 -25 -86 10 -16 -15 -109 -30 -109 -7 0 -16 -7 -19
-16 -7 -17 9 -44 26 -44 10 0 11 2 33 83 10 32 22 57 30 57 11 0 34 -23 86
-88 13 -16 29 -12 43 10 13 21 -8 48 -37 48 -11 0 -31 10 -43 21 -19 18 -21
24 -11 40 10 16 9 25 -4 47 -15 27 -15 30 7 58 13 16 24 35 24 42 0 6 9 12 20
12 25 0 36 25 20 45 -16 19 -34 19 -51 -1z m-42 -188 c-4 -9 -11 -16 -17 -16
-11 0 -14 33 -3 44 11 10 26 -11 20 -28z"/>
<path d="M1272 908 c-18 -18 -16 -78 3 -78 9 0 19 8 22 18 6 14 8 13 13 -7 3
-14 11 -26 18 -29 14 -4 8 34 -12 77 -13 29 -28 35 -44 19z"/>
<path d="M1176 878 c-13 -18 -16 -19 -16 -5 0 9 -7 17 -16 17 -10 0 -14 -6
-11 -14 3 -8 11 -32 18 -55 15 -50 29 -53 29 -6 0 23 7 41 19 52 11 9 18 20
15 25 -9 14 -22 9 -38 -14z"/>
<path d="M778 844 c-7 -8 -19 -21 -25 -29 -16 -17 -16 -25 -1 -25 6 0 19 -7
29 -16 18 -16 59 -11 59 7 0 6 -9 8 -19 4 -11 -3 -22 -1 -26 5 -3 5 1 10 9 10
19 0 28 14 20 33 -8 23 -32 28 -46 11z"/>
<path d="M342 813 c-19 -36 -20 -36 -31 -15 -20 38 -41 27 -41 -22 0 -66 10
-106 28 -106 12 0 14 9 9 43 -6 40 -4 43 16 43 14 -1 26 7 32 22 13 31 25 28
25 -7 0 -51 12 -91 27 -91 12 0 14 9 8 48 -18 127 -39 152 -73 85z"/>
<path d="M693 810 c4 -18 7 -36 7 -41 0 -5 5 -9 11 -9 15 0 6 73 -10 78 -11 4
-13 -3 -8 -28z"/>
<path d="M630 805 c0 -29 -8 -32 -26 -8 -19 27 -29 7 -10 -22 28 -43 56 -28
56 31 0 13 -4 24 -10 24 -5 0 -10 -11 -10 -25z"/>
</g>
</svg>
